<?xml version="1.0" encoding="utf-8"?>
<!-- Generator: Adobe Illustrator 17.0.0, SVG Export Plug-In . SVG Version: 6.00 Build 0)  -->
<!DOCTYPE svg PUBLIC "-//W3C//DTD SVG 1.0//EN" "http://www.w3.org/TR/2001/REC-SVG-20010904/DTD/svg10.dtd">
<svg version="1.0" id="Layer_1" xmlns="http://www.w3.org/2000/svg" xmlns:xlink="http://www.w3.org/1999/xlink" x="0px" y="0px"
	 width="332px" height="70px" viewBox="0 0 332 70" enable-background="new 0 0 332 70" xml:space="preserve">
<g>
	<g>
		<g>
			<path fill="#0F796A" d="M261.928,30.813c1.503-0.489,2.698-1.324,3.587-2.505c0.889-1.18,1.333-2.555,1.333-4.124
				c0-2.764-0.918-4.833-2.753-6.208c-1.835-1.374-4.393-2.062-7.673-2.062h-9.211v31.441h11.422c3.063,0,5.509-0.756,7.337-2.267
				c1.828-1.512,2.742-3.671,2.742-6.478c0-1.987-0.632-3.721-1.897-5.204C265.551,31.922,263.922,31.058,261.928,30.813z
				 M249.812,18.116h6.611c2.558,0,4.501,0.5,5.83,1.501c1.329,1.001,1.994,2.494,1.994,4.481c0,1.9-0.596,3.351-1.788,4.351
				c-1.192,1.001-2.879,1.522-5.061,1.565h-7.586V18.116z M264.117,43.457c-1.329,1.144-3.157,1.717-5.483,1.717h-8.822V32.195
				h8.735h0.347c2.196,0.072,3.948,0.695,5.256,1.868c1.308,1.174,1.962,2.703,1.962,4.589
				C266.111,40.711,265.446,42.312,264.117,43.457z M271.685,47.354h2.579V23.99h-2.579V47.354z M271.685,17.296h2.579v-3.628
				h-2.579V17.296z M286.85,45.486c-0.296,0.036-0.603,0.054-0.921,0.054c-0.925,0-1.666-0.32-2.222-0.961
				c-0.556-0.64-0.834-1.724-0.834-3.25V26.106h5.159V23.99h-5.159v-5.981h-2.622v5.981h-4.053v2.116h4.053V41.33
				c0,2.246,0.458,3.887,1.376,4.923c0.918,1.036,2.2,1.555,3.847,1.555c0.506,0,1.015-0.054,1.528-0.162
				c0.513-0.108,0.943-0.248,1.29-0.421l-0.39-1.922C287.496,45.389,287.146,45.451,286.85,45.486z M299.153,23.558
				c-2.832,0-5.205,1.094-7.12,3.282c-1.915,2.188-2.872,4.967-2.872,8.335v1.188c0,3.354,0.946,6.1,2.839,8.238
				c1.893,2.138,4.357,3.207,7.391,3.207c1.864,0,3.464-0.284,4.801-0.853c1.336-0.569,2.417-1.285,3.24-2.149l-1.105-1.771
				c-0.795,0.792-1.792,1.422-2.991,1.889c-1.199,0.468-2.514,0.702-3.945,0.702c-2.384,0-4.252-0.878-5.603-2.635
				c-1.351-1.756-2.026-3.966-2.026-6.629V35.65h16.321v-2.008c0-3.081-0.777-5.531-2.33-7.353
				C304.2,24.469,302,23.558,299.153,23.558z M305.482,33.448h-13.438l-0.065-0.13c0.217-2.188,0.968-3.995,2.254-5.42
				c1.286-1.425,2.926-2.138,4.92-2.138c2.037,0,3.601,0.673,4.693,2.019c1.091,1.346,1.636,3.055,1.636,5.128V33.448z
				 M325.22,36.881c-1.409-1.08-3.486-1.922-6.231-2.526c-2.442-0.532-4.071-1.148-4.887-1.846c-0.817-0.698-1.225-1.58-1.225-2.645
				c0-1.094,0.477-2.051,1.43-2.872c0.954-0.821,2.37-1.231,4.248-1.231c1.821,0,3.284,0.475,4.389,1.425
				c1.105,0.95,1.658,2.066,1.658,3.347h2.406l0.043-0.13c0.072-1.929-0.672-3.552-2.232-4.87c-1.561-1.317-3.649-1.976-6.264-1.976
				c-2.485,0-4.483,0.619-5.993,1.857c-1.51,1.238-2.265,2.75-2.265,4.535c0,1.8,0.675,3.2,2.026,4.2
				c1.351,1.001,3.414,1.789,6.188,2.364c2.355,0.518,3.984,1.184,4.887,1.997c0.903,0.814,1.355,1.767,1.355,2.861
				c0,1.166-0.542,2.167-1.626,3.002c-1.084,0.835-2.565,1.252-4.443,1.252c-1.734,0-3.24-0.381-4.519-1.145
				c-1.279-0.763-1.969-1.987-2.07-3.671h-2.384l-0.043,0.13c-0.087,1.872,0.683,3.484,2.308,4.837
				c1.625,1.353,3.861,2.03,6.708,2.03c2.601,0,4.693-0.608,6.275-1.825c1.582-1.216,2.373-2.797,2.373-4.74
				C327.333,39.415,326.629,37.961,325.22,36.881z"/>
		</g>
	</g>
	<g>
		<g>
			<path fill="#7C7D7D" d="M119.844,30.41l0.022-0.133c1.615-0.428,2.863-1.276,3.744-2.546c0.881-1.269,1.322-2.804,1.322-4.604
				c0-2.76-0.926-4.826-2.778-6.198c-1.852-1.373-4.452-2.059-7.799-2.059h-8.51v32.232h10.776c3.007,0,5.425-0.775,7.255-2.324
				c1.829-1.55,2.744-3.734,2.744-6.553c0-1.963-0.652-3.693-1.955-5.191C123.362,31.536,121.755,30.661,119.844,30.41z
				 M107.046,16.065h7.31c3.081,0,5.41,0.587,6.988,1.76c1.578,1.173,2.366,2.911,2.366,5.213c0,2.288-0.715,4.007-2.144,5.158
				c-1.43,1.151-3.544,1.749-6.344,1.793h-8.177V16.065z M123.066,43.892c-1.57,1.343-3.718,2.015-6.444,2.015h-9.577V31.185h9.577
				c2.696,0,4.836,0.65,6.421,1.948c1.585,1.299,2.377,3.011,2.377,5.136C125.422,40.675,124.636,42.549,123.066,43.892z
				 M138.627,22.706c-3.111,0-5.64,1.115-7.588,3.343c-1.948,2.229-2.922,5.099-2.922,8.611v0.93c0,3.527,0.978,6.405,2.933,8.633
				c1.955,2.229,4.496,3.343,7.621,3.343c3.096,0,5.618-1.114,7.566-3.343c1.948-2.228,2.922-5.106,2.922-8.633v-0.93
				c0-3.512-0.974-6.383-2.922-8.611C144.289,23.821,141.752,22.706,138.627,22.706z M147.959,35.591
				c0,2.996-0.844,5.542-2.533,7.637c-1.689,2.096-3.941,3.144-6.755,3.144c-2.859,0-5.133-1.044-6.821-3.133
				c-1.689-2.088-2.533-4.638-2.533-7.648v-0.93c0-2.937,0.844-5.464,2.533-7.582c1.689-2.117,3.947-3.177,6.777-3.177
				c2.814,0,5.073,1.059,6.777,3.177c1.703,2.118,2.555,4.645,2.555,7.582V35.591z M160.987,22.706c-3.111,0-5.64,1.115-7.588,3.343
				c-1.948,2.229-2.922,5.099-2.922,8.611v0.93c0,3.527,0.978,6.405,2.933,8.633c1.955,2.229,4.496,3.343,7.621,3.343
				c3.096,0,5.618-1.114,7.566-3.343c1.948-2.228,2.922-5.106,2.922-8.633v-0.93c0-3.512-0.974-6.383-2.922-8.611
				C166.649,23.821,164.112,22.706,160.987,22.706z M170.319,35.591c0,2.996-0.844,5.542-2.533,7.637
				c-1.689,2.096-3.941,3.144-6.755,3.144c-2.859,0-5.133-1.044-6.821-3.133c-1.689-2.088-2.533-4.638-2.533-7.648v-0.93
				c0-2.937,0.844-5.464,2.533-7.582c1.689-2.117,3.948-3.177,6.777-3.177c2.814,0,5.073,1.059,6.777,3.177
				c1.703,2.118,2.555,4.645,2.555,7.582V35.591z M175.014,47.102h1.2V12.568h-1.2V47.102z M190.086,22.706
				c-2.933,0-5.366,1.118-7.299,3.354c-1.933,2.236-2.9,5.088-2.9,8.556v1.417c0,3.321,0.974,6.073,2.922,8.257
				c1.948,2.184,4.336,3.276,7.166,3.276c1.837,0,3.422-0.299,4.755-0.897c1.333-0.598,2.422-1.361,3.266-2.291l-0.644-0.93
				c-0.83,0.886-1.907,1.594-3.233,2.125c-1.326,0.531-2.707,0.797-4.144,0.797c-2.607,0-4.74-0.992-6.399-2.977
				c-1.659-1.985-2.489-4.439-2.489-7.361v-1.417v-0.288h17.753v-1.837c0-3.025-0.793-5.413-2.378-7.161
				C194.878,23.581,192.753,22.706,190.086,22.706z M197.641,33.133h-16.309L181.265,33c0.207-2.627,1.107-4.8,2.7-6.52
				c1.592-1.719,3.633-2.579,6.121-2.579c2.34,0,4.185,0.801,5.533,2.402c1.348,1.601,2.022,3.634,2.022,6.099V33.133z
				 M218.379,42.276V30.278c0-2.45-0.778-4.324-2.333-5.623c-1.555-1.298-3.622-1.948-6.199-1.948c-2.533,0-4.57,0.646-6.111,1.937
				c-1.541,1.292-2.266,2.867-2.178,4.726l0.045,0.111l1,0.044c0-1.653,0.663-3.003,1.989-4.051
				c1.326-1.048,3.077-1.572,5.255-1.572c2.325,0,4.129,0.557,5.41,1.672c1.281,1.114,1.922,2.667,1.922,4.66v3.498h-6.866
				c-2.859,0-5.24,0.679-7.144,2.036c-1.904,1.358-2.855,3.041-2.855,5.047c0,2.066,0.637,3.708,1.911,4.925
				c1.274,1.218,3.029,1.826,5.266,1.826c2.34,0,4.333-0.454,5.977-1.362c1.644-0.908,2.881-2.084,3.711-3.531v0.376
				c0,0.605,0.034,1.17,0.1,1.694c0.067,0.524,0.196,1.31,0.389,2.358h1.333c-0.222-0.782-0.382-1.572-0.478-2.369
				C218.427,43.936,218.379,43.117,218.379,42.276z M217.179,40.328c-0.77,1.948-1.981,3.446-3.633,4.494
				c-1.652,1.048-3.67,1.572-6.055,1.572c-1.807,0-3.255-0.513-4.344-1.539c-1.089-1.026-1.633-2.343-1.633-3.952
				c0-1.682,0.855-3.095,2.566-4.239c1.711-1.144,3.811-1.716,6.299-1.716h6.799V40.328z M238.972,25.175
				c-1.311-1.646-3.277-2.468-5.899-2.468c-2.03,0-3.741,0.461-5.133,1.384c-1.393,0.922-2.459,2.218-3.2,3.885l-0.155-4.826h-1.022
				v9.962c-0.03,0.295-0.048,0.587-0.056,0.875c-0.008,0.288-0.011,0.572-0.011,0.852h0.067v12.264h1.2V31.739
				c0.37-2.302,1.222-4.184,2.555-5.645c1.333-1.461,3.259-2.192,5.777-2.192c2.044,0,3.662,0.679,4.855,2.037
				c1.192,1.358,1.789,3.697,1.789,7.018v14.146h1.2V33C240.939,29.429,240.283,26.821,238.972,25.175z"/>
		</g>
	</g>
	<path fill-rule="evenodd" clip-rule="evenodd" fill="#127869" d="M33.582,6.085C17.613,6.085,4.667,19.03,4.667,35
		c0,15.97,12.946,28.915,28.915,28.915c15.97,0,28.915-12.946,28.915-28.915C62.498,19.03,49.552,6.085,33.582,6.085z"/>
	<path fill-rule="evenodd" clip-rule="evenodd" fill="#4BC0AF" d="M76.173,24.282c0,8.538,6.656,15.512,15.037,15.971
		c-1.6,8.638-7.096,16.445-15.565,20.664c-14.314,7.129-31.696,1.305-38.825-13.008C29.69,33.595,35.514,16.212,49.828,9.083
		c10.557-5.258,22.783-3.469,31.334,3.575C78.092,15.574,76.173,19.702,76.173,24.282z"/>
</g>
</svg>
