<?xml version="1.0" encoding="utf-8"?>
<!-- Generator: Adobe Illustrator 25.2.1, SVG Export Plug-In . SVG Version: 6.00 Build 0)  -->
<svg version="1.1" id="Layer_1" xmlns="http://www.w3.org/2000/svg" xmlns:xlink="http://www.w3.org/1999/xlink" x="0px" y="0px"
	 viewBox="0 0 190 40" style="enable-background:new 0 0 190 40;" xml:space="preserve">
<style type="text/css">
	.st0{display:none;}
	.st1{display:inline;}
	.st2{fill:#0F796A;}
	.st3{fill:#666666;}
	.st4{fill-rule:evenodd;clip-rule:evenodd;fill:#698E87;}
	.st5{fill-rule:evenodd;clip-rule:evenodd;fill:#127869;}
	.st6{fill-rule:evenodd;clip-rule:evenodd;fill:#4BC0AF;}
</style>
<g id="Layer_1_1_" class="st0">
	<g class="st1">
		<g>
			<path class="st2" d="M119.3,20.2c0.9-0.3,1.6-0.8,2.1-1.4c0.5-0.7,0.8-1.5,0.8-2.4c0-1.6-0.5-2.8-1.6-3.6
				c-1.1-0.8-2.5-1.2-4.4-1.2h-5.3v18.1h6.6c1.8,0,3.2-0.4,4.2-1.3c1.1-0.9,1.6-2.1,1.6-3.7c0-1.1-0.4-2.1-1.1-3
				C121.4,20.8,120.5,20.3,119.3,20.2z M112.4,12.9h3.8c1.5,0,2.6,0.3,3.4,0.9c0.8,0.6,1.1,1.4,1.1,2.6c0,1.1-0.3,1.9-1,2.5
				c-0.7,0.6-1.7,0.9-2.9,0.9h-4.4L112.4,12.9L112.4,12.9z M120.6,27.4c-0.8,0.7-1.8,1-3.2,1h-5.1V21h5.2c1.3,0,2.3,0.4,3,1.1
				s1.1,1.6,1.1,2.6C121.8,25.9,121.4,26.8,120.6,27.4z M125,12.4h1.5v-2.1H125V12.4z M125,29.7h1.5V16.2H125V29.7z M133.7,28.6
				c-0.2,0-0.3,0-0.5,0c-0.5,0-1-0.2-1.3-0.6c-0.3-0.4-0.5-1-0.5-1.9v-8.8h3v-1.2h-3v-3.4h-1.5v3.4h-2.3v1.2h2.3v8.8
				c0,1.3,0.3,2.2,0.8,2.8c0.5,0.6,1.3,0.9,2.2,0.9c0.3,0,0.6,0,0.9-0.1c0.3-0.1,0.5-0.1,0.7-0.2l-0.2-1.1
				C134.1,28.6,133.9,28.6,133.7,28.6z M140.8,16c-1.6,0-3,0.6-4.1,1.9c-1.1,1.3-1.7,2.9-1.7,4.8v0.7c0,1.9,0.5,3.5,1.6,4.7
				s2.5,1.8,4.3,1.8c1.1,0,2-0.2,2.8-0.5c0.8-0.3,1.4-0.7,1.9-1.2l-0.6-1c-0.5,0.5-1,0.8-1.7,1.1c-0.7,0.3-1.4,0.4-2.3,0.4
				c-1.4,0-2.4-0.5-3.2-1.5s-1.2-2.3-1.2-3.8v-0.4h9.4v-1.2c0-1.8-0.4-3.2-1.3-4.2C143.7,16.5,142.4,16,140.8,16z M144.4,21.7h-7.7
				l0-0.1c0.1-1.3,0.6-2.3,1.3-3.1c0.7-0.8,1.7-1.2,2.8-1.2c1.2,0,2.1,0.4,2.7,1.2c0.6,0.8,0.9,1.8,0.9,3L144.4,21.7L144.4,21.7z
				 M155.8,23.7c-0.8-0.6-2-1.1-3.6-1.5c-1.4-0.3-2.3-0.7-2.8-1.1s-0.7-0.9-0.7-1.5c0-0.6,0.3-1.2,0.8-1.7c0.5-0.5,1.4-0.7,2.4-0.7
				c1,0,1.9,0.3,2.5,0.8c0.6,0.5,1,1.2,1,1.9h1.4l0-0.1c0-1.1-0.4-2-1.3-2.8c-0.9-0.8-2.1-1.1-3.6-1.1c-1.4,0-2.6,0.4-3.5,1.1
				c-0.9,0.7-1.3,1.6-1.3,2.6c0,1,0.4,1.8,1.2,2.4c0.8,0.6,2,1,3.6,1.4c1.4,0.3,2.3,0.7,2.8,1.1c0.5,0.5,0.8,1,0.8,1.6
				c0,0.7-0.3,1.2-0.9,1.7c-0.6,0.5-1.5,0.7-2.6,0.7c-1,0-1.9-0.2-2.6-0.7c-0.7-0.4-1.1-1.1-1.2-2.1h-1.4l0,0.1
				c-0.1,1.1,0.4,2,1.3,2.8c0.9,0.8,2.2,1.2,3.9,1.2c1.5,0,2.7-0.4,3.6-1.1c0.9-0.7,1.4-1.6,1.4-2.7C157,25.1,156.6,24.3,155.8,23.7
				z M40.6,20.3L40.6,20.3c0.9-0.3,1.6-0.8,2.1-1.5c0.5-0.7,0.7-1.6,0.7-2.6c0-1.6-0.5-2.7-1.6-3.5c-1-0.8-2.5-1.2-4.4-1.2h-4.8
				v18.1h6.1c1.7,0,3-0.4,4.1-1.3c1-0.9,1.5-2.1,1.5-3.7c0-1.1-0.4-2.1-1.1-2.9C42.6,20.9,41.7,20.4,40.6,20.3z M33.4,12.2h4.1
				c1.7,0,3,0.3,3.9,1c0.9,0.7,1.3,1.6,1.3,2.9c0,1.3-0.4,2.2-1.2,2.9c-0.8,0.6-2,1-3.6,1h-4.6V12.2z M42.4,27.9
				c-0.9,0.8-2.1,1.1-3.6,1.1h-5.4v-8.3h5.4c1.5,0,2.7,0.4,3.6,1.1c0.9,0.7,1.3,1.7,1.3,2.9C43.7,26,43.3,27.1,42.4,27.9z M51.1,16
				c-1.7,0-3.2,0.6-4.3,1.9c-1.1,1.3-1.6,2.9-1.6,4.8v0.5c0,2,0.5,3.6,1.6,4.8c1.1,1.3,2.5,1.9,4.3,1.9c1.7,0,3.2-0.6,4.2-1.9
				s1.6-2.9,1.6-4.8v-0.5c0-2-0.5-3.6-1.6-4.8C54.3,16.6,52.9,16,51.1,16z M56.4,23.2c0,1.7-0.5,3.1-1.4,4.3
				c-0.9,1.2-2.2,1.8-3.8,1.8c-1.6,0-2.9-0.6-3.8-1.8s-1.4-2.6-1.4-4.3v-0.5c0-1.6,0.5-3.1,1.4-4.3c0.9-1.2,2.2-1.8,3.8-1.8
				c1.6,0,2.8,0.6,3.8,1.8c1,1.2,1.4,2.6,1.4,4.3L56.4,23.2L56.4,23.2z M63.7,16c-1.7,0-3.2,0.6-4.3,1.9c-1.1,1.3-1.6,2.9-1.6,4.8
				v0.5c0,2,0.5,3.6,1.6,4.8c1.1,1.3,2.5,1.9,4.3,1.9c1.7,0,3.2-0.6,4.2-1.9s1.6-2.9,1.6-4.8v-0.5c0-2-0.5-3.6-1.6-4.8
				C66.9,16.6,65.5,16,63.7,16z M68.9,23.2c0,1.7-0.5,3.1-1.4,4.3c-0.9,1.2-2.2,1.8-3.8,1.8c-1.6,0-2.9-0.6-3.8-1.8
				s-1.4-2.6-1.4-4.3v-0.5c0-1.6,0.5-3.1,1.4-4.3c0.9-1.2,2.2-1.8,3.8-1.8c1.6,0,2.8,0.6,3.8,1.8c1,1.2,1.4,2.6,1.4,4.3L68.9,23.2
				L68.9,23.2z M71.6,29.7h0.7V10.3h-0.7V29.7z M80,16c-1.6,0-3,0.6-4.1,1.9c-1.1,1.3-1.6,2.9-1.6,4.8v0.8c0,1.9,0.5,3.4,1.6,4.6
				c1.1,1.2,2.4,1.8,4,1.8c1,0,1.9-0.2,2.7-0.5s1.4-0.8,1.8-1.3l-0.4-0.5c-0.5,0.5-1.1,0.9-1.8,1.2c-0.7,0.3-1.5,0.4-2.3,0.4
				c-1.5,0-2.7-0.6-3.6-1.7c-0.9-1.1-1.4-2.5-1.4-4.1v-1h10v-1c0-1.7-0.4-3-1.3-4C82.7,16.4,81.5,16,80,16z M84.3,21.8h-9.2l0-0.1
				c0.1-1.5,0.6-2.7,1.5-3.7s2-1.4,3.4-1.4c1.3,0,2.3,0.5,3.1,1.3c0.8,0.9,1.1,2,1.1,3.4C84.3,21.4,84.3,21.8,84.3,21.8z M95.9,26.9
				v-6.7c0-1.4-0.4-2.4-1.3-3.2c-0.9-0.7-2-1.1-3.5-1.1c-1.4,0-2.6,0.4-3.4,1.1s-1.3,1.6-1.2,2.7l0,0.1l0.6,0c0-0.9,0.4-1.7,1.1-2.3
				c0.7-0.6,1.7-0.9,3-0.9c1.3,0,2.3,0.3,3,0.9c0.7,0.6,1.1,1.5,1.1,2.6v2h-3.9c-1.6,0-2.9,0.4-4,1.1c-1.1,0.8-1.6,1.7-1.6,2.8
				c0,1.2,0.4,2.1,1.1,2.8c0.7,0.7,1.7,1,3,1c1.3,0,2.4-0.3,3.4-0.8c0.9-0.5,1.6-1.2,2.1-2v0.2c0,0.3,0,0.7,0.1,1s0.1,0.7,0.2,1.3
				h0.7c-0.1-0.4-0.2-0.9-0.3-1.3S95.9,27.4,95.9,26.9z M95.3,25.9c-0.4,1.1-1.1,1.9-2,2.5c-0.9,0.6-2.1,0.9-3.4,0.9
				c-1,0-1.8-0.3-2.4-0.9s-0.9-1.3-0.9-2.2c0-0.9,0.5-1.7,1.4-2.4s2.1-1,3.5-1h3.8V25.9z M104.2,16c-1.1,0-2.1,0.3-2.9,0.8
				c-0.8,0.5-1.4,1.2-1.8,2.2l-0.1-2.7h-0.6v5.6c0,0.2,0,0.3,0,0.5c0,0.2,0,0.3,0,0.5h0v6.9h0.7V21c0.2-1.3,0.7-2.4,1.4-3.2
				c0.7-0.8,1.8-1.2,3.2-1.2c1.1,0,2.1,0.4,2.7,1.1s1,2.1,1,3.9v7.9h0.7v-7.9c0-2-0.4-3.5-1.1-4.4C106.8,16.4,105.7,16,104.2,16z"/>
		</g>
	</g>
</g>
<g id="Layer_7" class="st0">
	
		<image style="display:inline;overflow:visible;enable-background:new    ;" width="100" height="40" xlink:href="logo.png"  transform="matrix(1.5752 0 0 1.5752 16.2421 -11.5031)">
	</image>
</g>
<g>
	<g id="Layer_2_1_">
		<g>
			<g>
				<path class="st2" d="M151.4,20.3c0.8-0.3,1.5-0.7,2-1.4c0.5-0.7,0.7-1.4,0.7-2.3c0-1.5-0.5-2.7-1.5-3.5c-1-0.8-2.4-1.1-4.3-1.1
					h-5.1v17.5h6.3c1.7,0,3.1-0.4,4.1-1.3c1-0.8,1.5-2,1.5-3.6c0-1.1-0.4-2.1-1.1-2.9C153.4,21,152.5,20.5,151.4,20.3z M144.6,13.3
					h3.7c1.4,0,2.5,0.3,3.2,0.8c0.7,0.6,1.1,1.4,1.1,2.5c0,1.1-0.3,1.9-1,2.4s-1.6,0.8-2.8,0.9h-4.2L144.6,13.3L144.6,13.3z
					 M152.6,27.4c-0.7,0.6-1.8,1-3,1h-4.9v-7.2h5c1.2,0,2.2,0.4,2.9,1c0.7,0.7,1.1,1.5,1.1,2.6C153.7,25.8,153.3,26.7,152.6,27.4z
					 M156.8,12.8h1.4v-2h-1.4V12.8z M156.8,29.5h1.4v-13h-1.4V29.5z M165.2,28.5c-0.2,0-0.3,0-0.5,0c-0.5,0-0.9-0.2-1.2-0.5
					c-0.3-0.4-0.5-1-0.5-1.8v-8.5h2.9v-1.2H163v-3.3h-1.5v3.3h-2.3v1.2h2.3v8.5c0,1.2,0.3,2.2,0.8,2.7s1.2,0.9,2.1,0.9
					c0.3,0,0.6,0,0.8-0.1s0.5-0.1,0.7-0.2l-0.2-1.1C165.6,28.4,165.4,28.5,165.2,28.5z M172.1,16.3c-1.6,0-2.9,0.6-4,1.8
					s-1.6,2.8-1.6,4.6v0.7c0,1.9,0.5,3.4,1.6,4.6c1.1,1.2,2.4,1.8,4.1,1.8c1,0,1.9-0.2,2.7-0.5c0.7-0.3,1.3-0.7,1.8-1.2l-0.6-1
					c-0.4,0.4-1,0.8-1.7,1.1s-1.4,0.4-2.2,0.4c-1.3,0-2.4-0.5-3.1-1.5c-0.8-1-1.1-2.2-1.1-3.7V23h9.1v-1.1c0-1.7-0.4-3.1-1.3-4.1
					C174.9,16.8,173.7,16.3,172.1,16.3z M175.6,21.8h-7.5l0-0.1c0.1-1.2,0.5-2.2,1.3-3c0.7-0.8,1.6-1.2,2.7-1.2c1.1,0,2,0.4,2.6,1.1
					c0.6,0.7,0.9,1.7,0.9,2.9L175.6,21.8L175.6,21.8z M186.6,23.7c-0.8-0.6-1.9-1.1-3.5-1.4c-1.4-0.3-2.3-0.6-2.7-1
					s-0.7-0.9-0.7-1.5c0-0.6,0.3-1.1,0.8-1.6c0.5-0.5,1.3-0.7,2.4-0.7c1,0,1.8,0.3,2.4,0.8c0.6,0.5,0.9,1.1,0.9,1.9h1.3l0-0.1
					c0-1.1-0.4-2-1.2-2.7s-2-1.1-3.5-1.1c-1.4,0-2.5,0.3-3.3,1c-0.8,0.7-1.3,1.5-1.3,2.5c0,1,0.4,1.8,1.1,2.3c0.8,0.6,1.9,1,3.4,1.3
					c1.3,0.3,2.2,0.7,2.7,1.1s0.8,1,0.8,1.6c0,0.6-0.3,1.2-0.9,1.7c-0.6,0.5-1.4,0.7-2.5,0.7c-1,0-1.8-0.2-2.5-0.6
					c-0.7-0.4-1.1-1.1-1.2-2h-1.3l0,0.1c0,1,0.4,1.9,1.3,2.7c0.9,0.8,2.1,1.1,3.7,1.1c1.4,0,2.6-0.3,3.5-1c0.9-0.7,1.3-1.6,1.3-2.6
					C187.7,25.1,187.3,24.3,186.6,23.7z"/>
			</g>
		</g>
	</g>
	<g id="Layer_3">
		<g>
			<g>
				<path class="st3" d="M72.4,20.1L72.4,20.1c0.9-0.3,1.6-0.8,2.1-1.5c0.5-0.7,0.7-1.6,0.7-2.6c0-1.5-0.5-2.7-1.5-3.4
					s-2.5-1.1-4.3-1.1h-4.7v17.9h6c1.7,0,3-0.4,4-1.3c1-0.9,1.5-2.1,1.5-3.6c0-1.1-0.4-2.1-1.1-2.9C74.4,20.7,73.5,20.3,72.4,20.1z
					 M65.3,12.1h4.1c1.7,0,3,0.3,3.9,1s1.3,1.6,1.3,2.9c0,1.3-0.4,2.2-1.2,2.9c-0.8,0.6-2,1-3.5,1h-4.5L65.3,12.1L65.3,12.1z
					 M74.2,27.6c-0.9,0.7-2.1,1.1-3.6,1.1h-5.3v-8.2h5.3c1.5,0,2.7,0.4,3.6,1.1c0.9,0.7,1.3,1.7,1.3,2.9
					C75.5,25.8,75.1,26.9,74.2,27.6z M82.8,15.8c-1.7,0-3.1,0.6-4.2,1.9c-1.1,1.2-1.6,2.8-1.6,4.8V23c0,2,0.5,3.6,1.6,4.8
					c1.1,1.2,2.5,1.9,4.2,1.9c1.7,0,3.1-0.6,4.2-1.9c1.1-1.2,1.6-2.8,1.6-4.8v-0.5c0-2-0.5-3.5-1.6-4.8C86,16.5,84.6,15.8,82.8,15.8
					z M88,23c0,1.7-0.5,3.1-1.4,4.2c-0.9,1.2-2.2,1.7-3.8,1.7c-1.6,0-2.9-0.6-3.8-1.7c-0.9-1.2-1.4-2.6-1.4-4.3v-0.5
					c0-1.6,0.5-3,1.4-4.2c0.9-1.2,2.2-1.8,3.8-1.8c1.6,0,2.8,0.6,3.8,1.8c0.9,1.2,1.4,2.6,1.4,4.2L88,23L88,23z M95.3,15.8
					c-1.7,0-3.1,0.6-4.2,1.9c-1.1,1.2-1.6,2.8-1.6,4.8V23c0,2,0.5,3.6,1.6,4.8c1.1,1.2,2.5,1.9,4.2,1.9c1.7,0,3.1-0.6,4.2-1.9
					c1.1-1.2,1.6-2.8,1.6-4.8v-0.5c0-2-0.5-3.5-1.6-4.8C98.4,16.5,97,15.8,95.3,15.8z M100.5,23c0,1.7-0.5,3.1-1.4,4.2
					c-0.9,1.2-2.2,1.7-3.8,1.7c-1.6,0-2.9-0.6-3.8-1.7c-0.9-1.2-1.4-2.6-1.4-4.3v-0.5c0-1.6,0.5-3,1.4-4.2c0.9-1.2,2.2-1.8,3.8-1.8
					c1.6,0,2.8,0.6,3.8,1.8c0.9,1.2,1.4,2.6,1.4,4.2L100.5,23L100.5,23z M103.1,29.4h0.7V10.2h-0.7V29.4z M111.4,15.8
					c-1.6,0-3,0.6-4.1,1.9c-1.1,1.2-1.6,2.8-1.6,4.8v0.8c0,1.8,0.5,3.4,1.6,4.6c1.1,1.2,2.4,1.8,4,1.8c1,0,1.9-0.2,2.6-0.5
					c0.7-0.3,1.3-0.8,1.8-1.3l-0.4-0.5c-0.5,0.5-1.1,0.9-1.8,1.2c-0.7,0.3-1.5,0.4-2.3,0.4c-1.4,0-2.6-0.6-3.6-1.7
					c-0.9-1.1-1.4-2.5-1.4-4.1v-0.8v-0.2h9.9v-1c0-1.7-0.4-3-1.3-4C114.1,16.3,112.9,15.8,111.4,15.8z M115.6,21.6h-9.1l0-0.1
					c0.1-1.5,0.6-2.7,1.5-3.6c0.9-1,2-1.4,3.4-1.4c1.3,0,2.3,0.4,3.1,1.3c0.7,0.9,1.1,2,1.1,3.4C115.6,21.2,115.6,21.6,115.6,21.6z
					 M127.2,26.7V20c0-1.4-0.4-2.4-1.3-3.1c-0.9-0.7-2-1.1-3.4-1.1c-1.4,0-2.5,0.4-3.4,1.1c-0.9,0.7-1.3,1.6-1.2,2.6l0,0.1l0.6,0
					c0-0.9,0.4-1.7,1.1-2.3c0.7-0.6,1.7-0.9,2.9-0.9c1.3,0,2.3,0.3,3,0.9c0.7,0.6,1.1,1.5,1.1,2.6V22h-3.8c-1.6,0-2.9,0.4-4,1.1
					c-1.1,0.8-1.6,1.7-1.6,2.8c0,1.1,0.4,2.1,1.1,2.7c0.7,0.7,1.7,1,2.9,1c1.3,0,2.4-0.3,3.3-0.8c0.9-0.5,1.6-1.2,2.1-2v0.2
					c0,0.3,0,0.7,0.1,0.9c0,0.3,0.1,0.7,0.2,1.3h0.7c-0.1-0.4-0.2-0.9-0.3-1.3C127.2,27.6,127.2,27.2,127.2,26.7z M126.5,25.6
					c-0.4,1.1-1.1,1.9-2,2.5c-0.9,0.6-2,0.9-3.4,0.9c-1,0-1.8-0.3-2.4-0.9c-0.6-0.6-0.9-1.3-0.9-2.2c0-0.9,0.5-1.7,1.4-2.4
					c1-0.6,2.1-1,3.5-1h3.8L126.5,25.6L126.5,25.6z M138.6,17.2c-0.7-0.9-1.8-1.4-3.3-1.4c-1.1,0-2.1,0.3-2.9,0.8
					c-0.8,0.5-1.4,1.2-1.8,2.2l-0.1-2.7h-0.6v5.5c0,0.2,0,0.3,0,0.5c0,0.2,0,0.3,0,0.5h0v6.8h0.7v-8.5c0.2-1.3,0.7-2.3,1.4-3.1
					s1.8-1.2,3.2-1.2c1.1,0,2,0.4,2.7,1.1c0.7,0.8,1,2.1,1,3.9v7.9h0.7v-7.8C139.7,19.6,139.4,18.1,138.6,17.2z"/>
			</g>
		</g>
	</g>
</g>
<g id="Layer_6" class="st0">
	<g class="st1">
		<g>
			<path class="st4" d="M50.5,14.1c0-2.4,1-4.5,2.6-6c-4.4-3.6-10.8-4.6-16.2-1.9c-0.3,0.2-0.7,0.4-1,0.6c-2.2-1.2-4.7-2-7.4-2
				c-8.2,0-14.9,6.7-14.9,14.9s6.7,14.9,14.9,14.9c2.7,0,5.3-0.8,7.5-2.1c4.2,2.5,9.5,2.8,14.2,0.5c4.4-2.2,7.2-6.2,8.1-10.7
				C53.9,22.1,50.5,18.5,50.5,14.1z"/>
		</g>
	</g>
</g>
<g>
	<g id="Layer_5">
		<path class="st5" d="M17.2,2.8C7.7,2.8,0,10.5,0,20s7.7,17.2,17.2,17.2S34.3,29.5,34.3,20S26.6,2.8,17.2,2.8z"/>
	</g>
	<g id="Layer_4">
		<path class="st6" d="M42.4,13.6c0,5.1,3.9,9.2,8.9,9.5c-1,5.1-4.2,9.8-9.2,12.3c-8.5,4.2-18.8,0.8-23-7.7
			c-4.2-8.5-0.8-18.8,7.7-23c6.3-3.1,13.5-2.1,18.6,2.1C43.6,8.5,42.4,10.9,42.4,13.6z"/>
	</g>
</g>
</svg>
