<?xml version="1.0" encoding="utf-8"?>
<!-- Generator: Adobe Illustrator 25.2.1, SVG Export Plug-In . SVG Version: 6.00 Build 0)  -->
<svg version="1.1" id="Layer_1" xmlns="http://www.w3.org/2000/svg" xmlns:xlink="http://www.w3.org/1999/xlink" x="0px" y="0px"
	 viewBox="0 0 190 40" style="enable-background:new 0 0 190 40;" xml:space="preserve">
<style type="text/css">
	.st0{display:none;}
	.st1{display:inline;}
	.st2{fill:#0F796A;}
	.st3{fill:#595959;}
	.st4{fill-rule:evenodd;clip-rule:evenodd;fill:#698E87;}
	.st5{fill-rule:evenodd;clip-rule:evenodd;fill:#127869;}
	.st6{fill-rule:evenodd;clip-rule:evenodd;fill:#4BC0AF;}
</style>
<g id="Layer_1_1_" class="st0">
	<g class="st1">
		<g>
			<path class="st2" d="M107.3,17.7c0.9-0.3,1.6-0.8,2.1-1.4c0.5-0.7,0.8-1.5,0.8-2.4c0-1.6-0.5-2.8-1.6-3.6s-2.5-1.2-4.4-1.2h-5.3
				v18.1h6.6c1.8,0,3.2-0.4,4.2-1.3c1.1-0.9,1.6-2.1,1.6-3.7c0-1.1-0.4-2.1-1.1-3C109.4,18.3,108.5,17.8,107.3,17.7z M100.4,10.4
				h3.8c1.5,0,2.6,0.3,3.4,0.9c0.8,0.6,1.1,1.4,1.1,2.6c0,1.1-0.3,1.9-1,2.5s-1.7,0.9-2.9,0.9h-4.4V10.4L100.4,10.4z M108.6,24.9
				c-0.8,0.7-1.8,1-3.2,1h-5.1v-7.5h5.2c1.3,0,2.3,0.4,3,1.1s1.1,1.6,1.1,2.6C109.8,23.4,109.4,24.3,108.6,24.9z M113,9.9h1.5V7.8
				H113V9.9z M113,27.2h1.5V13.7H113V27.2z M121.7,26.1c-0.2,0-0.3,0-0.5,0c-0.5,0-1-0.2-1.3-0.6s-0.5-1-0.5-1.9V15h3v-1.2h-3v-3.4
				h-1.5v3.4h-2.3V15h2.3v8.8c0,1.3,0.3,2.2,0.8,2.8s1.3,0.9,2.2,0.9c0.3,0,0.6,0,0.9-0.1s0.5-0.1,0.7-0.2l-0.2-1.1
				C122.1,26.1,121.9,26.1,121.7,26.1z M128.8,13.5c-1.6,0-3,0.6-4.1,1.9s-1.7,2.9-1.7,4.8v0.7c0,1.9,0.5,3.5,1.6,4.7
				s2.5,1.8,4.3,1.8c1.1,0,2-0.2,2.8-0.5s1.4-0.7,1.9-1.2l-0.6-1c-0.5,0.5-1,0.8-1.7,1.1c-0.7,0.3-1.4,0.4-2.3,0.4
				c-1.4,0-2.4-0.5-3.2-1.5s-1.2-2.3-1.2-3.8v-0.4h9.4v-1.2c0-1.8-0.4-3.2-1.3-4.2C131.7,14,130.4,13.5,128.8,13.5z M132.4,19.2
				h-7.7v-0.1c0.1-1.3,0.6-2.3,1.3-3.1c0.7-0.8,1.7-1.2,2.8-1.2c1.2,0,2.1,0.4,2.7,1.2c0.6,0.8,0.9,1.8,0.9,3V19.2L132.4,19.2z
				 M143.8,21.2c-0.8-0.6-2-1.1-3.6-1.5c-1.4-0.3-2.3-0.7-2.8-1.1s-0.7-0.9-0.7-1.5s0.3-1.2,0.8-1.7s1.4-0.7,2.4-0.7
				s1.9,0.3,2.5,0.8c0.6,0.5,1,1.2,1,1.9h1.4v-0.1c0-1.1-0.4-2-1.3-2.8c-0.9-0.8-2.1-1.1-3.6-1.1c-1.4,0-2.6,0.4-3.5,1.1
				c-0.9,0.7-1.3,1.6-1.3,2.6s0.4,1.8,1.2,2.4s2,1,3.6,1.4c1.4,0.3,2.3,0.7,2.8,1.1c0.5,0.5,0.8,1,0.8,1.6c0,0.7-0.3,1.2-0.9,1.7
				c-0.6,0.5-1.5,0.7-2.6,0.7c-1,0-1.9-0.2-2.6-0.7c-0.7-0.4-1.1-1.1-1.2-2.1h-1.4v0.1c-0.1,1.1,0.4,2,1.3,2.8
				c0.9,0.8,2.2,1.2,3.9,1.2c1.5,0,2.7-0.4,3.6-1.1c0.9-0.7,1.4-1.6,1.4-2.7C145,22.6,144.6,21.8,143.8,21.2z M28.6,17.8L28.6,17.8
				c0.9-0.3,1.6-0.8,2.1-1.5c0.5-0.7,0.7-1.6,0.7-2.6c0-1.6-0.5-2.7-1.6-3.5c-1-0.8-2.5-1.2-4.4-1.2h-4.8v18.1h6.1
				c1.7,0,3-0.4,4.1-1.3c1-0.9,1.5-2.1,1.5-3.7c0-1.1-0.4-2.1-1.1-2.9C30.6,18.4,29.7,17.9,28.6,17.8z M21.4,9.7h4.1
				c1.7,0,3,0.3,3.9,1s1.3,1.6,1.3,2.9s-0.4,2.2-1.2,2.9c-0.8,0.6-2,1-3.6,1h-4.6V9.7H21.4z M30.4,25.4c-0.9,0.8-2.1,1.1-3.6,1.1
				h-5.4v-8.3h5.4c1.5,0,2.7,0.4,3.6,1.1s1.3,1.7,1.3,2.9C31.7,23.5,31.3,24.6,30.4,25.4z M39.1,13.5c-1.7,0-3.2,0.6-4.3,1.9
				s-1.6,2.9-1.6,4.8v0.5c0,2,0.5,3.6,1.6,4.8c1.1,1.3,2.5,1.9,4.3,1.9c1.7,0,3.2-0.6,4.2-1.9s1.6-2.9,1.6-4.8v-0.5
				c0-2-0.5-3.6-1.6-4.8C42.3,14.1,40.9,13.5,39.1,13.5z M44.4,20.7c0,1.7-0.5,3.1-1.4,4.3c-0.9,1.2-2.2,1.8-3.8,1.8
				s-2.9-0.6-3.8-1.8S34,22.4,34,20.7v-0.5c0-1.6,0.5-3.1,1.4-4.3s2.2-1.8,3.8-1.8s2.8,0.6,3.8,1.8s1.4,2.6,1.4,4.3V20.7L44.4,20.7z
				 M51.7,13.5c-1.7,0-3.2,0.6-4.3,1.9s-1.6,2.9-1.6,4.8v0.5c0,2,0.5,3.6,1.6,4.8c1.1,1.3,2.5,1.9,4.3,1.9c1.7,0,3.2-0.6,4.2-1.9
				s1.6-2.9,1.6-4.8v-0.5c0-2-0.5-3.6-1.6-4.8C54.9,14.1,53.5,13.5,51.7,13.5z M56.9,20.7c0,1.7-0.5,3.1-1.4,4.3
				c-0.9,1.2-2.2,1.8-3.8,1.8s-2.9-0.6-3.8-1.8s-1.4-2.6-1.4-4.3v-0.5c0-1.6,0.5-3.1,1.4-4.3s2.2-1.8,3.8-1.8s2.8,0.6,3.8,1.8
				s1.4,2.6,1.4,4.3V20.7L56.9,20.7z M59.6,27.2h0.7V7.8h-0.7V27.2z M68,13.5c-1.6,0-3,0.6-4.1,1.9s-1.6,2.9-1.6,4.8V21
				c0,1.9,0.5,3.4,1.6,4.6s2.4,1.8,4,1.8c1,0,1.9-0.2,2.7-0.5s1.4-0.8,1.8-1.3L72,25.1c-0.5,0.5-1.1,0.9-1.8,1.2
				c-0.7,0.3-1.5,0.4-2.3,0.4c-1.5,0-2.7-0.6-3.6-1.7c-0.8-1-1.3-2.4-1.3-4.1v-1h10v-1c0-1.7-0.4-3-1.3-4
				C70.7,13.9,69.5,13.5,68,13.5z M72.3,19.3h-9.2v-0.1c0.1-1.5,0.6-2.7,1.5-3.7c0.9-1,2-1.4,3.4-1.4c1.3,0,2.3,0.4,3.1,1.3
				c0.8,0.9,1.1,2,1.1,3.4C72.3,18.9,72.3,19.3,72.3,19.3z M83.9,24.4v-6.7c0-1.4-0.4-2.4-1.3-3.2c-0.9-0.7-2-1.1-3.5-1.1
				c-1.4,0-2.6,0.4-3.4,1.1s-1.3,1.6-1.2,2.7v0.1h0.6c0-0.9,0.4-1.7,1.1-2.3s1.7-0.9,3-0.9s2.3,0.3,3,0.9c0.7,0.6,1.1,1.5,1.1,2.6v2
				h-3.9c-1.6,0-2.9,0.4-4,1.1c-1.1,0.8-1.6,1.7-1.6,2.8c0,1.2,0.4,2.1,1.1,2.8c0.7,0.7,1.7,1,3,1s2.4-0.3,3.4-0.8
				c0.9-0.5,1.6-1.2,2.1-2v0.2c0,0.3,0,0.7,0.1,1s0.1,0.7,0.2,1.3h0.7c-0.1-0.4-0.2-0.9-0.3-1.3S83.9,24.9,83.9,24.4z M83.3,23.4
				c-0.4,1.1-1.1,1.9-2,2.5s-2.1,0.9-3.4,0.9c-1,0-1.8-0.3-2.4-0.9s-0.9-1.3-0.9-2.2c0-0.9,0.5-1.7,1.4-2.4s2.1-1,3.5-1h3.8V23.4z
				 M92.2,13.5c-1.1,0-2.1,0.3-2.9,0.8s-1.4,1.2-1.8,2.2l-0.1-2.7h-0.6v5.6c0,0.2,0,0.3,0,0.5s0,0.3,0,0.5l0,0v6.9h0.7v-8.6
				c0.2-1.3,0.7-2.4,1.4-3.2c0.7-0.8,1.8-1.2,3.2-1.2c1.1,0,2.1,0.4,2.7,1.1s1,2.1,1,3.9v7.9h0.7v-7.9c0-2-0.4-3.5-1.1-4.4
				C94.8,13.9,93.7,13.5,92.2,13.5z"/>
		</g>
	</g>
</g>
<g id="Layer_2_1_">
	<g>
		<g>
			<path class="st2" d="M152.4,16.3c0.9-0.3,1.6-0.8,2.1-1.4c0.5-0.7,0.8-1.5,0.8-2.4c0-1.6-0.5-2.8-1.6-3.6s-2.5-1.2-4.4-1.2H144
				v18.1h6.6c1.8,0,3.2-0.4,4.2-1.3c1.1-0.9,1.6-2.1,1.6-3.7c0-1.1-0.4-2.1-1.1-3C154.5,17,153.5,16.5,152.4,16.3z M145.4,9h3.8
				c1.5,0,2.6,0.3,3.4,0.9c0.8,0.6,1.1,1.4,1.1,2.6c0,1.1-0.3,1.9-1,2.5s-1.7,0.9-2.9,0.9h-4.4L145.4,9L145.4,9z M153.6,23.6
				c-0.8,0.7-1.8,1-3.2,1h-5.1v-7.5h5.2c1.3,0,2.3,0.4,3,1.1c0.8,0.7,1.1,1.6,1.1,2.6C154.8,22,154.4,22.9,153.6,23.6z M158,8.6h1.5
				V6.5H158V8.6z M158,25.8h1.5V12.4H158V25.8z M166.7,24.8c-0.2,0-0.3,0-0.5,0c-0.5,0-1-0.2-1.3-0.6s-0.5-1-0.5-1.9v-8.8h3v-1.2h-3
				V9h-1.5v3.4h-2.3v1.2h2.3v8.8c0,1.3,0.3,2.2,0.8,2.8c0.5,0.6,1.3,0.9,2.2,0.9c0.3,0,0.6,0,0.9-0.1c0.3-0.1,0.5-0.1,0.7-0.2
				l-0.2-1.1C167.1,24.7,166.9,24.8,166.7,24.8z M173.8,12.2c-1.6,0-3,0.6-4.1,1.9S168,17,168,18.9v0.7c0,1.9,0.5,3.5,1.6,4.7
				c1.1,1.2,2.5,1.8,4.3,1.8c1.1,0,2-0.2,2.8-0.5s1.4-0.7,1.9-1.2l-0.6-1c-0.5,0.5-1,0.8-1.7,1.1c-0.7,0.3-1.4,0.4-2.3,0.4
				c-1.4,0-2.4-0.5-3.2-1.5s-1.2-2.3-1.2-3.8v-0.4h9.4V18c0-1.8-0.4-3.2-1.3-4.2C176.7,12.7,175.4,12.2,173.8,12.2z M177.4,17.8
				h-7.7v-0.1c0.1-1.3,0.6-2.3,1.3-3.1s1.7-1.2,2.8-1.2c1.2,0,2.1,0.4,2.7,1.2c0.6,0.8,0.9,1.8,0.9,2.9V17.8L177.4,17.8z
				 M188.8,19.8c-0.8-0.6-2-1.1-3.6-1.5c-1.4-0.3-2.3-0.7-2.8-1.1s-0.7-0.9-0.7-1.5s0.3-1.2,0.8-1.7s1.4-0.7,2.4-0.7
				s1.9,0.3,2.5,0.8s1,1.2,1,1.9h1.4v-0.1c0-1.1-0.4-2-1.3-2.8c-0.9-0.8-2.1-1.1-3.6-1.1c-1.4,0-2.6,0.4-3.4,1.1
				c-0.9,0.7-1.3,1.6-1.3,2.6s0.4,1.8,1.2,2.4s2,1,3.6,1.4c1.4,0.3,2.3,0.7,2.8,1.1c0.5,0.5,0.8,1,0.8,1.6c0,0.7-0.3,1.2-0.9,1.7
				c-0.6,0.5-1.5,0.7-2.6,0.7c-1,0-1.9-0.2-2.6-0.7c-0.7-0.4-1.1-1.1-1.2-2.1h-1.4v0.1c0,1.1,0.4,2,1.3,2.8c0.9,0.8,2.2,1.2,3.9,1.2
				c1.5,0,2.7-0.3,3.6-1c0.9-0.7,1.4-1.6,1.4-2.7C190,21.3,189.6,20.4,188.8,19.8z"/>
		</g>
	</g>
</g>
<g id="Layer_7" class="st0">
	
		<image style="display:inline;overflow:visible;enable-background:new    ;" width="100" height="40" xlink:href="logo.png"  transform="matrix(1.5752 0 0 1.5752 4.2421 -14.0031)">
	</image>
</g>
<g id="Layer_3">
	<g>
		<g>
			<path class="st3" d="M70.7,16.1L70.7,16.1c0.9-0.3,1.7-0.8,2.2-1.5s0.8-1.6,0.8-2.6c0-1.6-0.5-2.8-1.6-3.6s-2.6-1.2-4.5-1.2h-4.9
				v18.5h6.2c1.7,0,3.1-0.4,4.2-1.3s1.6-2.1,1.6-3.8c0-1.1-0.4-2.1-1.1-3C72.7,16.7,71.8,16.2,70.7,16.1z M63.3,7.9h4.2
				c1.8,0,3.1,0.3,4,1s1.4,1.7,1.4,3s-0.4,2.3-1.2,3c-0.8,0.7-2,1-3.6,1h-4.7L63.3,7.9L63.3,7.9z M72.5,23.9
				c-0.9,0.8-2.1,1.2-3.7,1.2h-5.5v-8.5h5.5c1.5,0,2.8,0.4,3.7,1.1c0.9,0.7,1.4,1.7,1.4,3S73.4,23.1,72.5,23.9z M81.5,11.7
				c-1.8,0-3.2,0.6-4.4,1.9c-1.1,1.3-1.7,2.9-1.7,5v0.5c0,2,0.6,3.7,1.7,5s2.6,1.9,4.4,1.9s3.2-0.6,4.4-1.9c1.1-1.3,1.7-2.9,1.7-5
				v-0.5c0-2-0.6-3.7-1.7-5C84.7,12.3,83.3,11.7,81.5,11.7z M86.8,19.1c0,1.7-0.5,3.2-1.5,4.4c-1,1.2-2.3,1.8-3.9,1.8
				s-3-0.6-3.9-1.8c-1-1.2-1.5-2.7-1.5-4.4v-0.5c0-1.7,0.5-3.1,1.5-4.4c1-1.2,2.3-1.8,3.9-1.8s2.9,0.6,3.9,1.8s1.5,2.7,1.5,4.4V19.1
				L86.8,19.1z M94.3,11.7c-1.8,0-3.2,0.6-4.4,1.9c-1.1,1.3-1.7,2.9-1.7,5v0.5c0,2,0.6,3.7,1.7,5s2.6,1.9,4.4,1.9s3.2-0.6,4.4-1.9
				c1.1-1.3,1.7-2.9,1.7-5v-0.5c0-2-0.6-3.7-1.7-5C97.6,12.3,96.1,11.7,94.3,11.7z M99.7,19.1c0,1.7-0.5,3.2-1.5,4.4
				c-1,1.2-2.3,1.8-3.9,1.8s-3-0.6-3.9-1.8c-1-1.2-1.5-2.7-1.5-4.4v-0.5c0-1.7,0.5-3.1,1.5-4.4c1-1.2,2.3-1.8,3.9-1.8
				s2.9,0.6,3.9,1.8s1.5,2.7,1.5,4.4V19.1L99.7,19.1z M102.4,25.7h0.7V5.8h-0.7V25.7z M111.1,11.7c-1.7,0-3.1,0.6-4.2,1.9
				s-1.7,2.9-1.7,4.9v0.8c0,1.9,0.6,3.5,1.7,4.7c1.1,1.3,2.5,1.9,4.1,1.9c1.1,0,2-0.2,2.7-0.5c0.8-0.3,1.4-0.8,1.9-1.3l-0.4-0.5
				c-0.5,0.5-1.1,0.9-1.9,1.2c-0.8,0.3-1.6,0.5-2.4,0.5c-1.5,0-2.7-0.6-3.7-1.7s-1.4-2.6-1.4-4.2v-0.8v-0.2H116v-1.1
				c0-1.7-0.5-3.1-1.4-4.1C113.8,12.2,112.6,11.7,111.1,11.7z M115.4,17.7H106v-0.1c0.1-1.5,0.6-2.8,1.6-3.7c0.9-1,2.1-1.5,3.5-1.5
				c1.3,0,2.4,0.5,3.2,1.4c0.8,0.9,1.2,2.1,1.2,3.5C115.4,17.2,115.4,17.7,115.4,17.7z M127.3,22.9V16c0-1.4-0.4-2.5-1.3-3.2
				s-2.1-1.1-3.6-1.1s-2.6,0.4-3.5,1.1c-0.9,0.7-1.3,1.6-1.3,2.7v0.1h0.6c0-1,0.4-1.7,1.1-2.3c0.8-0.6,1.8-0.9,3-0.9
				c1.3,0,2.4,0.3,3.1,1c0.7,0.6,1.1,1.5,1.1,2.7v2h-3.9c-1.6,0-3,0.4-4.1,1.2c-1.1,0.8-1.6,1.7-1.6,2.9c0,1.2,0.4,2.1,1.1,2.8
				c0.7,0.7,1.7,1.1,3,1.1s2.5-0.3,3.4-0.8s1.7-1.2,2.1-2v0.2c0,0.3,0,0.7,0.1,1c0,0.3,0.1,0.8,0.2,1.4h0.8
				c-0.1-0.4-0.2-0.9-0.3-1.4C127.4,23.9,127.3,23.4,127.3,22.9z M126.7,21.8c-0.4,1.1-1.1,2-2.1,2.6s-2.1,0.9-3.5,0.9
				c-1,0-1.9-0.3-2.5-0.9s-0.9-1.3-0.9-2.3s0.5-1.8,1.5-2.4c1-0.7,2.2-1,3.6-1h3.9V21.8L126.7,21.8z M139.2,13.1
				c-0.8-0.9-1.9-1.4-3.4-1.4c-1.2,0-2.2,0.3-3,0.8s-1.4,1.3-1.8,2.2l-0.1-2.8h-0.6v5.7c0,0.2,0,0.3,0,0.5s0,0.3,0,0.5l0,0v7.1h0.7
				v-8.8c0.2-1.3,0.7-2.4,1.5-3.2s1.9-1.3,3.3-1.3c1.2,0,2.1,0.4,2.8,1.2s1,2.1,1,4v8.1h0.7v-8.1C140.3,15.5,139.9,14,139.2,13.1z"
				/>
		</g>
	</g>
</g>
<g id="Layer_6" class="st0">
	<g class="st1">
		<g>
			<path class="st4" d="M38.5,11.6c0-2.4,1-4.5,2.6-6C36.6,1.9,30.3,1,24.8,3.7c-0.3,0.2-0.7,0.4-1,0.6c-2.2-1.2-4.7-2-7.4-2
				C8.2,2.3,1.5,9,1.5,17.2s6.7,14.9,14.9,14.9c2.7,0,5.3-0.8,7.5-2.1c4.2,2.5,9.5,2.8,14.2,0.5c4.4-2.2,7.2-6.2,8.1-10.7
				C41.9,19.6,38.5,16,38.5,11.6z"/>
		</g>
	</g>
</g>
<g>
	<g id="Layer_5">
		<path class="st5" d="M17.8,0.1C8,0.1,0,8.1,0,17.9s8,17.9,17.9,17.9s17.9-8,17.9-17.9S27.7,0.1,17.8,0.1z"/>
	</g>
	<g id="Layer_4">
		<path class="st6" d="M44.2,11.3c0,5.3,4.1,9.6,9.3,9.9c-1,5.3-4.4,10.2-9.6,12.8c-8.8,4.4-19.6,0.8-24-8s-0.8-19.6,8-24
			C34.4-1.3,42-0.2,47.3,4.1C45.4,5.9,44.2,8.5,44.2,11.3z"/>
	</g>
</g>
</svg>
