<?xml version="1.0" encoding="utf-8"?>
<!-- Generator: Adobe Illustrator 17.0.0, SVG Export Plug-In . SVG Version: 6.00 Build 0)  -->
<!DOCTYPE svg PUBLIC "-//W3C//DTD SVG 1.0//EN" "http://www.w3.org/TR/2001/REC-SVG-20010904/DTD/svg10.dtd">
<svg version="1.0" xmlns="http://www.w3.org/2000/svg" xmlns:xlink="http://www.w3.org/1999/xlink" x="0px" y="0px" width="166px"
	 height="35px" viewBox="0 0 166 35" enable-background="new 0 0 166 35" xml:space="preserve">
<g id="Layer_1" display="none">
	<g display="inline">
		<g>
			<path fill="#0F796A" d="M107.348,17.662c0.865-0.282,1.554-0.763,2.065-1.442c0.512-0.68,0.768-1.471,0.768-2.375
				c0-1.591-0.529-2.783-1.585-3.575c-1.057-0.791-2.529-1.187-4.418-1.187h-5.304v18.103h6.577c1.764,0,3.172-0.435,4.224-1.306
				c1.052-0.87,1.579-2.114,1.579-3.73c0-1.144-0.364-2.143-1.092-2.997C109.434,18.301,108.496,17.803,107.348,17.662z
				 M100.372,10.351h3.806c1.473,0,2.591,0.288,3.357,0.864c0.765,0.576,1.148,1.436,1.148,2.58c0,1.094-0.343,1.929-1.03,2.505
				c-0.686,0.576-1.658,0.877-2.914,0.901h-4.368V10.351z M108.609,24.942c-0.766,0.659-1.818,0.988-3.157,0.988h-5.079v-7.473
				h5.229c1.265,0.042,2.273,0.4,3.026,1.076c0.753,0.676,1.13,1.556,1.13,2.642C109.757,23.361,109.374,24.283,108.609,24.942z
				 M112.966,9.879h1.485V7.79h-1.485V9.879z M112.966,27.186h1.485V13.733h-1.485V27.186z M121.698,26.111
				c-0.171,0.021-0.347,0.031-0.53,0.031c-0.533,0-0.959-0.184-1.279-0.553c-0.32-0.369-0.481-0.992-0.481-1.871v-8.766h2.97v-1.219
				h-2.97v-3.444h-1.51v3.444h-2.334v1.219h2.334v8.766c0,1.293,0.264,2.238,0.792,2.835c0.528,0.597,1.267,0.895,2.215,0.895
				c0.291,0,0.584-0.031,0.88-0.093c0.295-0.062,0.543-0.143,0.742-0.242l-0.225-1.107C122.07,26.055,121.868,26.09,121.698,26.111z
				 M128.782,13.485c-1.631,0-2.997,0.63-4.099,1.89c-1.103,1.26-1.654,2.86-1.654,4.799v0.684c0,1.931,0.545,3.512,1.635,4.743
				c1.09,1.231,2.508,1.846,4.255,1.846c1.073,0,1.995-0.164,2.764-0.491c0.769-0.327,1.391-0.74,1.866-1.237l-0.636-1.019
				c-0.458,0.456-1.032,0.819-1.722,1.088c-0.691,0.269-1.448,0.404-2.271,0.404c-1.373,0-2.448-0.506-3.226-1.517
				c-0.778-1.011-1.167-2.283-1.167-3.817v-0.41h9.397v-1.156c0-1.774-0.447-3.185-1.342-4.234
				C131.688,14.009,130.421,13.485,128.782,13.485z M132.426,19.179h-7.737l-0.037-0.075c0.125-1.26,0.557-2.3,1.298-3.121
				c0.74-0.821,1.685-1.231,2.833-1.231c1.173,0,2.074,0.388,2.702,1.162c0.628,0.775,0.942,1.759,0.942,2.953V19.179z
				 M143.791,21.156c-0.811-0.622-2.007-1.107-3.588-1.455c-1.406-0.307-2.344-0.661-2.814-1.063
				c-0.47-0.402-0.705-0.91-0.705-1.523c0-0.63,0.274-1.181,0.824-1.654c0.549-0.472,1.364-0.709,2.446-0.709
				c1.048,0,1.891,0.273,2.527,0.821c0.636,0.547,0.955,1.189,0.955,1.927h1.385l0.025-0.075c0.042-1.111-0.387-2.045-1.285-2.804
				c-0.899-0.758-2.101-1.138-3.607-1.138c-1.431,0-2.581,0.356-3.451,1.069c-0.869,0.713-1.304,1.583-1.304,2.611
				c0,1.036,0.389,1.842,1.167,2.418c0.778,0.576,1.966,1.03,3.563,1.361c1.356,0.298,2.294,0.682,2.814,1.15
				c0.52,0.468,0.78,1.018,0.78,1.647c0,0.671-0.312,1.248-0.936,1.728c-0.624,0.481-1.477,0.721-2.558,0.721
				c-0.998,0-1.866-0.22-2.602-0.659c-0.736-0.439-1.134-1.144-1.192-2.114h-1.373l-0.025,0.075
				c-0.05,1.078,0.393,2.006,1.329,2.785c0.936,0.779,2.223,1.169,3.862,1.169c1.498,0,2.702-0.35,3.613-1.051
				c0.911-0.7,1.367-1.61,1.367-2.729C145.008,22.615,144.602,21.778,143.791,21.156z M28.595,17.783l0.013-0.075
				c0.907-0.24,1.608-0.717,2.103-1.43c0.495-0.713,0.742-1.575,0.742-2.586c0-1.55-0.52-2.711-1.56-3.481
				c-1.04-0.771-2.5-1.156-4.38-1.156h-4.78v18.103h6.053c1.689,0,3.047-0.435,4.075-1.305c1.027-0.87,1.541-2.097,1.541-3.68
				c0-1.102-0.366-2.074-1.098-2.916C30.57,18.415,29.668,17.924,28.595,17.783z M21.406,9.726h4.106
				c1.73,0,3.039,0.329,3.925,0.989c0.886,0.659,1.329,1.635,1.329,2.928c0,1.285-0.401,2.25-1.204,2.897
				c-0.803,0.647-1.99,0.982-3.563,1.007h-4.593V9.726z M30.404,25.354c-0.882,0.754-2.088,1.132-3.619,1.132h-5.379v-8.268h5.379
				c1.514,0,2.716,0.365,3.607,1.094c0.89,0.729,1.335,1.691,1.335,2.885C31.727,23.548,31.286,24.6,30.404,25.354z M39.144,13.456
				c-1.747,0-3.168,0.626-4.262,1.878c-1.094,1.252-1.641,2.864-1.641,4.837v0.522c0,1.981,0.549,3.597,1.647,4.849
				c1.098,1.252,2.525,1.878,4.281,1.878c1.739,0,3.155-0.626,4.249-1.878c1.094-1.252,1.641-2.868,1.641-4.849V20.17
				c0-1.973-0.547-3.585-1.641-4.837C42.324,14.082,40.899,13.456,39.144,13.456z M44.385,20.692c0,1.683-0.474,3.113-1.423,4.289
				c-0.948,1.177-2.213,1.766-3.794,1.766c-1.606,0-2.883-0.586-3.831-1.759c-0.948-1.173-1.423-2.605-1.423-4.296V20.17
				c0-1.649,0.474-3.069,1.423-4.258c0.948-1.189,2.217-1.784,3.806-1.784c1.581,0,2.849,0.595,3.806,1.784
				c0.957,1.19,1.435,2.609,1.435,4.258V20.692z M51.702,13.456c-1.747,0-3.168,0.626-4.262,1.878
				c-1.094,1.252-1.641,2.864-1.641,4.837v0.522c0,1.981,0.549,3.597,1.647,4.849c1.098,1.252,2.525,1.878,4.28,1.878
				c1.739,0,3.155-0.626,4.249-1.878c1.094-1.252,1.641-2.868,1.641-4.849V20.17c0-1.973-0.547-3.585-1.641-4.837
				C54.883,14.082,53.458,13.456,51.702,13.456z M56.944,20.692c0,1.683-0.474,3.113-1.423,4.289
				c-0.949,1.177-2.213,1.766-3.794,1.766c-1.606,0-2.883-0.586-3.831-1.759c-0.948-1.173-1.423-2.605-1.423-4.296V20.17
				c0-1.649,0.474-3.069,1.423-4.258c0.948-1.189,2.217-1.784,3.806-1.784c1.581,0,2.849,0.595,3.806,1.784
				c0.957,1.19,1.435,2.609,1.435,4.258V20.692z M59.581,27.157h0.674V7.761h-0.674V27.157z M68.046,13.456
				c-1.647,0-3.014,0.628-4.099,1.884c-1.086,1.256-1.629,2.858-1.629,4.805v0.796c0,1.865,0.547,3.411,1.641,4.638
				c1.094,1.227,2.435,1.84,4.025,1.84c1.032,0,1.922-0.168,2.671-0.504c0.749-0.336,1.36-0.765,1.835-1.287l-0.362-0.522
				c-0.466,0.497-1.071,0.895-1.816,1.194c-0.745,0.298-1.521,0.448-2.327,0.448c-1.464,0-2.662-0.557-3.594-1.672
				c-0.932-1.115-1.398-2.493-1.398-4.134v-0.957h9.971v-1.032c0-1.699-0.445-3.04-1.335-4.022
				C70.737,13.947,69.544,13.456,68.046,13.456z M72.289,19.312h-9.16l-0.037-0.075c0.116-1.475,0.622-2.696,1.516-3.662
				c0.894-0.966,2.04-1.449,3.438-1.449c1.315,0,2.35,0.45,3.107,1.349c0.757,0.899,1.136,2.041,1.136,3.425V19.312z M83.936,24.447
				v-6.739c0-1.376-0.437-2.429-1.31-3.158c-0.874-0.729-2.034-1.094-3.482-1.094c-1.423,0-2.567,0.363-3.432,1.088
				c-0.865,0.725-1.273,1.61-1.223,2.654l0.025,0.062l0.562,0.025c0-0.928,0.372-1.687,1.117-2.275
				c0.745-0.588,1.728-0.883,2.951-0.883c1.306,0,2.319,0.313,3.039,0.939c0.719,0.626,1.079,1.498,1.079,2.617v1.964h-3.856
				c-1.606,0-2.943,0.381-4.012,1.144c-1.069,0.763-1.604,1.708-1.604,2.835c0,1.161,0.358,2.083,1.073,2.766
				c0.716,0.684,1.701,1.026,2.958,1.026c1.315,0,2.433-0.255,3.357-0.765c0.923-0.51,1.618-1.171,2.084-1.983v0.211
				c0,0.34,0.019,0.657,0.056,0.951c0.037,0.294,0.11,0.736,0.218,1.324h0.749c-0.125-0.439-0.214-0.883-0.268-1.33
				C83.963,25.379,83.936,24.919,83.936,24.447z M83.263,23.353c-0.433,1.094-1.113,1.936-2.04,2.524
				c-0.928,0.589-2.061,0.883-3.401,0.883c-1.015,0-1.828-0.288-2.44-0.864c-0.612-0.576-0.917-1.316-0.917-2.219
				c0-0.945,0.48-1.739,1.441-2.381c0.961-0.642,2.14-0.964,3.538-0.964h3.819V23.353z M92.189,13.456
				c-1.14,0-2.101,0.259-2.883,0.777c-0.782,0.518-1.381,1.246-1.797,2.182l-0.087-2.711h-0.574v5.595
				c-0.017,0.166-0.027,0.33-0.031,0.491c-0.004,0.162-0.006,0.321-0.006,0.479h0.037v6.888h0.674v-8.629
				c0.208-1.293,0.686-2.35,1.435-3.171c0.749-0.821,1.83-1.231,3.245-1.231c1.148,0,2.057,0.381,2.727,1.144
				c0.67,0.763,1.005,2.076,1.005,3.941v7.945h0.674v-7.92c0-2.006-0.368-3.471-1.104-4.395
				C94.766,13.918,93.662,13.456,92.189,13.456z"/>
		</g>
	</g>
</g>
<g id="Layer_2">
	<g>
		<g>
			<path fill="#0F796A" d="M132.254,15.15c0.767-0.25,1.377-0.676,1.83-1.278c0.453-0.602,0.68-1.304,0.68-2.104
				c0-1.41-0.468-2.466-1.404-3.167c-0.936-0.701-2.241-1.052-3.915-1.052h-4.7v16.041h5.828c1.563,0,2.81-0.386,3.743-1.157
				c0.932-0.771,1.399-1.873,1.399-3.305c0-1.014-0.323-1.899-0.968-2.655C134.102,15.715,133.271,15.275,132.254,15.15z
				 M126.072,8.672h3.373c1.305,0,2.296,0.255,2.975,0.766c0.678,0.511,1.017,1.272,1.017,2.286c0,0.969-0.304,1.709-0.912,2.22
				c-0.608,0.511-1.469,0.777-2.582,0.799h-3.87V8.672z M133.371,21.6c-0.678,0.584-1.611,0.876-2.798,0.876h-4.501v-6.621h4.633
				c1.121,0.037,2.014,0.354,2.682,0.953c0.667,0.599,1.001,1.379,1.001,2.341C134.388,20.199,134.049,21.016,133.371,21.6z
				 M137.232,8.253h1.316V6.402h-1.316V8.253z M137.232,23.589h1.316v-11.92h-1.316V23.589z M144.969,22.636
				c-0.151,0.018-0.308,0.028-0.47,0.028c-0.472,0-0.85-0.163-1.133-0.49c-0.284-0.327-0.426-0.879-0.426-1.658v-7.767h2.632v-1.08
				h-2.632V8.617h-1.338v3.052h-2.068v1.08h2.068v7.767c0,1.146,0.234,1.983,0.702,2.512c0.468,0.529,1.122,0.793,1.963,0.793
				c0.258,0,0.518-0.028,0.78-0.083c0.262-0.055,0.481-0.127,0.658-0.215l-0.199-0.981C145.299,22.586,145.12,22.618,144.969,22.636
				z M151.246,11.448c-1.445,0-2.656,0.558-3.633,1.675c-0.977,1.117-1.465,2.534-1.465,4.253v0.606
				c0,1.711,0.483,3.112,1.449,4.203c0.966,1.091,2.223,1.636,3.771,1.636c0.951,0,1.767-0.145,2.449-0.435
				c0.682-0.29,1.233-0.656,1.653-1.096l-0.564-0.903c-0.405,0.404-0.914,0.725-1.526,0.964c-0.612,0.239-1.283,0.358-2.013,0.358
				c-1.216,0-2.169-0.448-2.859-1.344c-0.689-0.896-1.034-2.023-1.034-3.382v-0.364h8.327v-1.025c0-1.572-0.396-2.822-1.189-3.751
				C153.821,11.913,152.698,11.448,151.246,11.448z M154.475,16.494h-6.856l-0.033-0.066c0.111-1.116,0.494-2.038,1.15-2.765
				c0.656-0.727,1.493-1.091,2.51-1.091c1.039,0,1.837,0.343,2.394,1.03c0.557,0.687,0.835,1.559,0.835,2.617V16.494z
				 M164.545,18.246c-0.719-0.551-1.779-0.981-3.179-1.289c-1.246-0.272-2.077-0.586-2.494-0.942
				c-0.417-0.356-0.625-0.806-0.625-1.35c0-0.558,0.243-1.047,0.73-1.465c0.487-0.419,1.209-0.628,2.167-0.628
				c0.929,0,1.675,0.242,2.239,0.727c0.564,0.485,0.846,1.054,0.846,1.708h1.227l0.022-0.066c0.037-0.984-0.343-1.812-1.139-2.484
				c-0.796-0.672-1.862-1.008-3.196-1.008c-1.268,0-2.287,0.316-3.057,0.947c-0.77,0.632-1.156,1.403-1.156,2.314
				c0,0.918,0.345,1.632,1.034,2.143c0.689,0.511,1.742,0.913,3.157,1.206c1.202,0.264,2.033,0.604,2.494,1.019
				c0.461,0.415,0.691,0.902,0.691,1.46c0,0.595-0.276,1.105-0.829,1.531c-0.553,0.426-1.309,0.639-2.267,0.639
				c-0.885,0-1.653-0.195-2.306-0.584c-0.652-0.389-1.005-1.014-1.056-1.873h-1.216l-0.022,0.066
				c-0.044,0.955,0.348,1.778,1.178,2.468c0.829,0.69,1.97,1.036,3.422,1.036c1.327,0,2.394-0.31,3.201-0.931
				c0.807-0.621,1.211-1.427,1.211-2.418C165.623,19.538,165.264,18.796,164.545,18.246z"/>
		</g>
	</g>
</g>
<g id="Layer_7" display="none">
	<image display="inline" overflow="visible" width="166" height="35" xlink:href="logo.png" >
	</image>
</g>
<g id="Layer_3">
	<g>
		<g>
			<path fill="#7C7D7D" d="M59.763,14.944l0.011-0.068c0.824-0.218,1.461-0.651,1.91-1.299c0.45-0.648,0.674-1.431,0.674-2.349
				c0-1.408-0.472-2.462-1.417-3.162c-0.945-0.7-2.271-1.05-3.979-1.05h-4.342V23.46h5.498c1.534,0,2.768-0.395,3.701-1.186
				c0.933-0.791,1.4-1.905,1.4-3.343c0-1.001-0.333-1.884-0.998-2.649C61.558,15.518,60.738,15.072,59.763,14.944z M53.234,7.625
				h3.73c1.572,0,2.76,0.299,3.565,0.898c0.805,0.599,1.207,1.485,1.207,2.66c0,1.167-0.365,2.044-1.094,2.632
				c-0.729,0.587-1.808,0.892-3.237,0.915h-4.172V7.625z M61.407,21.822c-0.801,0.685-1.897,1.028-3.288,1.028h-4.886v-7.511h4.886
				c1.375,0,2.467,0.331,3.276,0.994c0.809,0.663,1.213,1.536,1.213,2.62C62.609,20.181,62.208,21.137,61.407,21.822z
				 M69.346,11.014c-1.587,0-2.878,0.569-3.871,1.706c-0.994,1.137-1.491,2.602-1.491,4.393v0.474c0,1.8,0.499,3.268,1.496,4.405
				c0.998,1.137,2.294,1.706,3.888,1.706c1.58,0,2.866-0.568,3.86-1.706c0.994-1.137,1.491-2.605,1.491-4.405v-0.474
				c0-1.792-0.497-3.256-1.491-4.393C72.235,11.582,70.941,11.014,69.346,11.014z M74.107,17.587c0,1.529-0.431,2.827-1.292,3.897
				c-0.862,1.069-2.01,1.604-3.446,1.604c-1.459,0-2.619-0.533-3.48-1.598c-0.862-1.065-1.292-2.366-1.292-3.902v-0.474
				c0-1.498,0.431-2.788,1.292-3.868c0.862-1.08,2.014-1.621,3.458-1.621c1.436,0,2.588,0.54,3.458,1.621
				c0.869,1.081,1.304,2.37,1.304,3.868V17.587z M80.754,11.014c-1.587,0-2.878,0.569-3.871,1.706
				c-0.994,1.137-1.491,2.602-1.491,4.393v0.474c0,1.8,0.499,3.268,1.496,4.405c0.998,1.137,2.294,1.706,3.888,1.706
				c1.579,0,2.866-0.568,3.86-1.706c0.994-1.137,1.491-2.605,1.491-4.405v-0.474c0-1.792-0.497-3.256-1.491-4.393
				C83.643,11.582,82.349,11.014,80.754,11.014z M85.515,17.587c0,1.529-0.431,2.827-1.292,3.897
				c-0.862,1.069-2.01,1.604-3.446,1.604c-1.459,0-2.619-0.533-3.48-1.598c-0.862-1.065-1.292-2.366-1.292-3.902v-0.474
				c0-1.498,0.431-2.788,1.292-3.868c0.862-1.08,2.014-1.621,3.458-1.621c1.436,0,2.588,0.54,3.458,1.621
				c0.869,1.081,1.304,2.37,1.304,3.868V17.587z M87.911,23.46h0.612V5.841h-0.612V23.46z M95.6,11.014
				c-1.496,0-2.738,0.57-3.724,1.711c-0.986,1.141-1.479,2.596-1.479,4.365v0.723c0,1.694,0.497,3.099,1.491,4.213
				c0.994,1.114,2.212,1.672,3.656,1.672c0.937,0,1.746-0.153,2.426-0.457s1.236-0.695,1.666-1.169l-0.329-0.474
				c-0.423,0.452-0.973,0.813-1.649,1.084c-0.676,0.271-1.381,0.407-2.114,0.407c-1.33,0-2.419-0.506-3.265-1.519
				c-0.847-1.013-1.27-2.265-1.27-3.755V17.09v-0.147h9.058v-0.938c0-1.543-0.404-2.761-1.213-3.654
				C98.045,11.46,96.961,11.014,95.6,11.014z M99.455,16.333h-8.321L91.1,16.266c0.106-1.34,0.565-2.449,1.377-3.326
				c0.812-0.877,1.854-1.316,3.123-1.316c1.194,0,2.135,0.409,2.823,1.226c0.688,0.817,1.032,1.854,1.032,3.112V16.333z
				 M110.035,20.998v-6.122c0-1.25-0.397-2.206-1.19-2.869c-0.794-0.662-1.848-0.994-3.163-0.994c-1.292,0-2.332,0.329-3.118,0.988
				c-0.786,0.659-1.156,1.463-1.111,2.411l0.023,0.056l0.51,0.023c0-0.843,0.338-1.532,1.015-2.067
				c0.676-0.534,1.57-0.802,2.681-0.802c1.186,0,2.107,0.284,2.76,0.853c0.654,0.569,0.981,1.361,0.981,2.377v1.784h-3.503
				c-1.459,0-2.674,0.346-3.645,1.039c-0.971,0.693-1.457,1.551-1.457,2.575c0,1.054,0.325,1.892,0.975,2.513
				c0.65,0.621,1.546,0.932,2.687,0.932c1.194,0,2.211-0.232,3.049-0.695c0.839-0.463,1.47-1.063,1.893-1.801v0.192
				c0,0.309,0.017,0.597,0.051,0.864c0.034,0.267,0.1,0.668,0.198,1.203h0.68c-0.113-0.399-0.195-0.802-0.244-1.208
				C110.06,21.845,110.035,21.427,110.035,20.998z M109.423,20.004c-0.393,0.994-1.011,1.758-1.853,2.293
				c-0.843,0.535-1.872,0.802-3.089,0.802c-0.922,0-1.661-0.262-2.216-0.785c-0.555-0.523-0.833-1.195-0.833-2.016
				c0-0.858,0.436-1.579,1.309-2.163c0.873-0.583,1.944-0.875,3.214-0.875h3.469V20.004z M120.542,12.273
				c-0.669-0.84-1.672-1.259-3.01-1.259c-1.036,0-1.908,0.235-2.619,0.706c-0.71,0.471-1.255,1.131-1.633,1.982l-0.079-2.462h-0.521
				v5.082c-0.015,0.151-0.025,0.299-0.028,0.446c-0.004,0.147-0.006,0.292-0.006,0.435h0.034v6.257h0.612v-7.838
				c0.189-1.175,0.624-2.135,1.304-2.88c0.68-0.745,1.662-1.118,2.947-1.118c1.043,0,1.869,0.346,2.477,1.039
				c0.608,0.693,0.913,1.886,0.913,3.58v7.217h0.612v-7.195C121.545,14.443,121.211,13.113,120.542,12.273z"/>
		</g>
	</g>
	<path fill-rule="evenodd" clip-rule="evenodd" fill="none" d="M8-3C-5.531-3-16.5,7.969-16.5,21.5S-5.531,46,8,46
		s24.5-10.969,24.5-24.5S21.531-3,8-3z"/>
</g>
<g id="Layer_5">
	<path fill-rule="evenodd" clip-rule="evenodd" fill="#127869" d="M15.753,2.533C7.605,2.533,1,9.138,1,17.286
		s6.605,14.753,14.753,14.753s14.753-6.605,14.753-14.753S23.9,2.533,15.753,2.533z"/>
</g>
<g id="Layer_6" display="none">
	<g display="inline">
		<g>
			<path fill-rule="evenodd" clip-rule="evenodd" fill="#698E87" d="M38.47,11.587c0-2.373,0.994-4.511,2.584-6.022
				c-4.43-3.649-10.763-4.576-16.232-1.852c-0.347,0.173-0.675,0.369-1.003,0.564c-2.181-1.248-4.7-1.972-7.392-1.972
				c-8.238,0-14.916,6.678-14.916,14.916c0,8.238,6.678,14.916,14.916,14.916c2.747,0,5.313-0.756,7.523-2.051
				c4.219,2.457,9.549,2.817,14.246,0.478c4.387-2.185,7.234-6.23,8.063-10.704C41.918,19.623,38.47,16.01,38.47,11.587z"/>
		</g>
	</g>
</g>
<g id="Layer_4">
	<path fill-rule="evenodd" clip-rule="evenodd" fill="#4BC0AF" d="M37.482,11.818c0,4.356,3.396,7.914,7.672,8.148
		c-0.817,4.407-3.621,8.39-7.941,10.542c-7.303,3.637-16.171,0.666-19.809-6.637C13.767,16.569,16.738,7.7,24.041,4.063
		c5.386-2.683,11.624-1.77,15.986,1.824C38.461,7.375,37.482,9.481,37.482,11.818z"/>
</g>
</svg>
